<?xml version="1.0" encoding="UTF-8"?>
<svg id="Layer_2" data-name="Layer 2" xmlns="http://www.w3.org/2000/svg" viewBox="0 0 178.43 115.01">
  <g id="Layer_1-2" data-name="Layer 1">
    <g>
      <path d="m89.22,115.01c-31.21,0-57.58-24.45-61.35-56.87-.28-2.45,1.47-4.67,3.92-4.96,2.46-.28,112.41-.28,114.86,0,2.45.29,4.21,2.5,3.92,4.95-3.77,32.43-30.15,56.88-61.35,56.88Z" fill="aqua"/>
      <path d="m19.46,9.73c0,5.37-4.35,9.73-9.73,9.73S0,15.1,0,9.73,4.36,0,9.73,0s9.73,4.35,9.73,9.73Z" fill="aqua"/>
      <path d="m178.43,9.73c0,5.37-4.35,9.73-9.73,9.73s-9.73-4.36-9.73-9.73,4.36-9.73,9.73-9.73,9.73,4.35,9.73,9.73Z" fill="aqua"/>
    </g>
  </g>
</svg>